<svg xmlns="http://www.w3.org/2000/svg"><defs><symbol id="icon-search" viewBox="0 0 32 32"><path fill="none" stroke="#fff" stroke-linejoin="round" stroke-linecap="round" stroke-width="2.667" d="M14.667 25.333c5.891 0 10.667-4.776 10.667-10.667S20.558 3.999 14.667 3.999 4 8.775 4 14.666s4.776 10.667 10.667 10.667zM28 28.001l-5.8-5.8"/></symbol><symbol id="icon-heart" viewBox="0 0 32 32"><path fill="#ff6b08" d="m16 30.144-2.24-2.218C5.44 20.639 0 15.728 0 9.708 0 4.797 3.84.995 8.8.995c2.72 0 5.44 1.267 7.2 3.327C17.76 2.263 20.48.995 23.2.995c4.96 0 8.8 3.802 8.8 8.713 0 6.02-5.44 10.931-13.76 18.218L16 30.144z"/></symbol><symbol id="icon-logo" viewBox="0 0 32 32"><path fill="none" stroke-linejoin="round" stroke-linecap="round" stroke-width="2.667" d="M26.427 2.667H5.574a2.907 2.907 0 0 0-2.907 2.907v20.853a2.907 2.907 0 0 0 2.907 2.907h20.853a2.907 2.907 0 0 0 2.907-2.907V5.574a2.907 2.907 0 0 0-2.907-2.907zM9.333 2.667v26.667M22.667 2.667v26.667M2.667 16h26.667M2.667 9.333h6.667M2.667 22.667h6.667M22.667 22.667h6.667M22.667 9.333h6.667"/></symbol><symbol id="icon-close" viewBox="0 0 32 32"><path stroke-width="2.133" d="m8.533 8.533 14.933 14.933M8.533 23.467 23.466 8.534"/></symbol><symbol id="icon-check" viewBox="0 0 42 32"><path d="m6.263 15.205-.22-.21-3.307 3.132 11.651 11.114L38.864 5.89l-3.285-3.134-21.192 20.197-8.124-7.75z"/></symbol><symbol id="icon-film-1" viewBox="0 0 32 32"><path fill="none" stroke="#fff" style="stroke:var(--color1,#fff)" stroke-linejoin="round" stroke-linecap="round" stroke-width="2.667" d="M26.427 2.667H5.574a2.907 2.907 0 0 0-2.907 2.907v20.853a2.907 2.907 0 0 0 2.907 2.907v0h20.853a2.907 2.907 0 0 0 2.907-2.907v0V5.574a2.907 2.907 0 0 0-2.907-2.907v0zm-17.094 0v26.667M22.667 2.667v26.667M2.667 16h26.667M2.667 9.333h6.667M2.667 22.667h6.667m13.333 0h6.667M22.667 9.333h6.667"/></symbol><symbol id="icon-Filmoteka" viewBox="0 0 173 32"><path fill="#fff" style="fill:var(--color1,#fff)" d="M5.572 2.229v28.438H.67V2.229h4.902zm11.601 12.442v3.887H4.321v-3.887h12.852zm1.621-12.442v3.906H4.321V2.229h14.473zm8.477 7.305v21.133h-4.727V9.534h4.727zm-5.039-5.547c0-.716.234-1.309.703-1.777.482-.482 1.146-.723 1.992-.723.833 0 1.491.241 1.973.723.482.469.723 1.061.723 1.777 0 .703-.241 1.289-.723 1.758s-1.139.703-1.973.703c-.846 0-1.51-.234-1.992-.703-.469-.469-.703-1.055-.703-1.758zM37.466.667v30h-4.727v-30h4.727zm9.863 13.164v16.836h-4.707V9.534h4.434l.273 4.297zm-.761 5.488-1.602-.02c0-1.458.182-2.806.547-4.043s.898-2.311 1.601-3.223a7.05 7.05 0 0 1 2.617-2.129c1.055-.508 2.272-.762 3.652-.762.963 0 1.842.143 2.637.43.807.273 1.504.71 2.09 1.309.599.599 1.055 1.367 1.367 2.305.325.938.488 2.07.488 3.398v14.082h-4.707V16.994c0-1.029-.156-1.836-.469-2.422-.299-.586-.736-1.003-1.309-1.25-.56-.26-1.23-.391-2.012-.391-.885 0-1.641.169-2.266.508-.612.339-1.113.801-1.504 1.387s-.677 1.263-.859 2.031a10.654 10.654 0 0 0-.273 2.461zm13.105-1.25-2.207.488c0-1.276.176-2.481.527-3.613.365-1.146.892-2.148 1.582-3.008.703-.872 1.569-1.556 2.598-2.051s2.207-.742 3.535-.742c1.081 0 2.044.15 2.891.449.859.286 1.589.742 2.187 1.367s1.055 1.439 1.367 2.441c.313.99.469 2.187.469 3.594v13.672h-4.727V16.975c0-1.068-.156-1.895-.469-2.48-.299-.586-.729-.99-1.289-1.211-.56-.234-1.23-.352-2.012-.352-.729 0-1.374.137-1.934.41a3.842 3.842 0 0 0-1.387 1.113 4.948 4.948 0 0 0-.859 1.621 6.961 6.961 0 0 0-.273 1.992zm16.895 2.266v-.449c0-1.523.221-2.936.664-4.238.443-1.315 1.081-2.454 1.914-3.418a8.633 8.633 0 0 1 3.086-2.266c1.224-.547 2.604-.82 4.141-.82 1.549 0 2.93.273 4.141.82a8.59 8.59 0 0 1 3.105 2.266c.846.964 1.491 2.103 1.934 3.418.443 1.302.664 2.715.664 4.238v.449c0 1.523-.221 2.936-.664 4.238s-1.087 2.441-1.934 3.418a8.965 8.965 0 0 1-3.086 2.266c-1.211.534-2.585.801-4.121.801-1.549 0-2.936-.267-4.16-.801a8.952 8.952 0 0 1-3.086-2.266c-.846-.977-1.491-2.116-1.934-3.418s-.664-2.715-.664-4.238zm4.707-.45v.449c0 .951.098 1.849.293 2.695s.501 1.589.918 2.227.95 1.139 1.601 1.504 1.426.547 2.324.547c.872 0 1.628-.182 2.266-.547.651-.365 1.185-.866 1.602-1.504s.723-1.38.918-2.227a11.26 11.26 0 0 0 .312-2.695v-.449c0-.938-.104-1.823-.312-2.656a6.813 6.813 0 0 0-.938-2.246 4.485 4.485 0 0 0-1.601-1.523c-.638-.378-1.4-.566-2.285-.566s-1.654.189-2.305.566c-.638.365-1.165.872-1.582 1.523s-.723 1.4-.918 2.246a11.63 11.63 0 0 0-.293 2.656zm28.574-10.351v3.438H97.935V9.534h11.914zm-8.477-5.176h4.707v20.469c0 .651.091 1.152.273 1.504.195.339.462.567.801.684s.736.176 1.191.176c.325 0 .638-.02.937-.059s.54-.078.723-.117l.02 3.594c-.391.117-.846.221-1.367.312-.508.091-1.094.137-1.758.137-1.081 0-2.038-.189-2.871-.566-.833-.391-1.484-1.022-1.953-1.895s-.703-2.031-.703-3.477V4.358zm21.426 26.699c-1.562 0-2.975-.254-4.238-.762-1.25-.521-2.318-1.243-3.203-2.168-.872-.925-1.543-2.012-2.012-3.262s-.703-2.598-.703-4.043v-.781c0-1.654.241-3.151.723-4.492s1.152-2.487 2.012-3.438c.859-.964 1.875-1.699 3.047-2.207s2.441-.762 3.809-.762c1.51 0 2.832.254 3.965.762s2.07 1.224 2.812 2.148c.755.911 1.315 1.999 1.68 3.262.378 1.263.566 2.656.566 4.18v2.012h-16.328v-3.379h11.68v-.371a6.6 6.6 0 0 0-.508-2.383c-.299-.742-.762-1.341-1.387-1.797s-1.458-.684-2.5-.684c-.781 0-1.478.169-2.09.508-.599.325-1.1.801-1.504 1.426s-.716 1.38-.938 2.266c-.208.872-.312 1.855-.312 2.949v.781c0 .924.124 1.784.371 2.578.26.781.638 1.465 1.133 2.051s1.094 1.048 1.797 1.387c.703.325 1.504.488 2.402.488 1.133 0 2.142-.228 3.027-.684s1.654-1.1 2.305-1.934l2.481 2.402c-.456.664-1.048 1.302-1.777 1.914-.729.599-1.621 1.087-2.676 1.465-1.042.378-2.253.566-3.633.566zM139.673.667v30h-4.727v-30h4.727zm13.126 8.867-9.2 10.195-5.039 5.156-1.231-3.984 3.809-4.707 5.976-6.66h5.684zm-4.668 21.133-6.856-9.922 2.969-3.301 9.336 13.223h-5.449zm19.569-4.239V16.35c0-.755-.136-1.406-.409-1.953s-.691-.97-1.251-1.27c-.547-.299-1.236-.449-2.069-.449-.769 0-1.433.13-1.993.391s-.996.612-1.308 1.055a2.549 2.549 0 0 0-.469 1.504h-4.687c0-.833.201-1.641.605-2.422s.989-1.478 1.757-2.09 1.687-1.094 2.755-1.445c1.067-.352 2.265-.527 3.593-.527 1.588 0 2.995.267 4.219.801 1.237.534 2.207 1.341 2.911 2.422.716 1.068 1.073 2.409 1.073 4.023v9.395c0 .963.065 1.829.196 2.598.143.755.345 1.413.605 1.973v.313h-4.824c-.221-.508-.397-1.152-.528-1.934a15.82 15.82 0 0 1-.176-2.305zm.684-8.613.039 2.91h-3.379c-.872 0-1.64.085-2.304.254-.664.156-1.217.391-1.66.703s-.775.69-.997 1.133c-.221.443-.332.944-.332 1.504s.131 1.074.391 1.543c.261.456.639.814 1.133 1.074.508.261 1.12.391 1.836.391.964 0 1.804-.195 2.52-.586.729-.404 1.301-.892 1.719-1.465.416-.586.637-1.139.664-1.66l1.523 2.09c-.156.534-.423 1.107-.8 1.719s-.873 1.198-1.485 1.758c-.599.547-1.321.996-2.168 1.348-.832.351-1.796.527-2.889.527-1.381 0-2.611-.273-3.692-.82-1.081-.56-1.927-1.309-2.539-2.246-.612-.951-.919-2.025-.919-3.223 0-1.12.208-2.109.625-2.969a5.81 5.81 0 0 1 1.875-2.187c.833-.586 1.849-1.029 3.047-1.328 1.199-.313 2.565-.469 4.103-.469h3.691z"/></symbol><symbol id="icon-search-1" viewBox="0 0 32 32"><path d="m30.276 28.391-7.567-7.567a11.875 11.875 0 0 0 2.624-7.471v-.02.001c0-6.627-5.372-12-12-12s-12 5.373-12 12 5.373 12 12 12a11.95 11.95 0 0 0 7.49-2.624l7.567 7.567c.241.241.574.391.941.391h.001a1.333 1.333 0 0 0 .943-2.276zm-16.943-5.724a9.333 9.333 0 1 1 0-18.666 9.333 9.333 0 1 1 0 18.666z"/></symbol><symbol id="icon-checkmark" viewBox="0 0 32 32"><path d="M27 4 12 19l-7-7-5 5 12 12L32 9z"/></symbol><symbol id="icon-filters" viewBox="0 0 32 32"><path d="M25.333 2.667H6.666a4 4 0 0 0-4 4v1.561c0 .578.123 1.128.343 1.624l-.01-.025v.08c.199.445.463.825.787 1.147l8.213 8.16V28.004c0 .474.248.891.621 1.127l.005.003c.2.126.442.2.702.2h.005c.219-.001.426-.055.607-.15l-.007.003 5.333-2.667c.437-.224.732-.671.733-1.186v-6.12l8.16-8.16c.323-.322.588-.702.777-1.123l.009-.024v-.08a3.935 3.935 0 0 0 .387-1.594V6.667a4 4 0 0 0-4-4zM17.72 17.72a1.33 1.33 0 0 0-.387.939v5.848l-2.667 1.333v-7.181a1.33 1.33 0 0 0-.387-.939l-7.067-7.053h17.573zM26.667 8H5.334V6.667c0-.736.597-1.333 1.333-1.333h18.667c.736 0 1.333.597 1.333 1.333z"/></symbol><symbol id="nothing-here-space" viewBox="0 0 43 32"><path d="M24.367 4.644c-.017.05-.033.422-.033.833 0 .628.017.756.089.783.156.061.217-.083.217-.517 0-.233.022-.389.044-.344.45.761.611.989.706.989.144 0 .2-.122.272-.594.089-.567.078-.989-.022-1.072-.139-.117-.178-.017-.217.556-.022.306-.061.567-.083.583-.028.011-.2-.272-.389-.639-.25-.483-.372-.667-.45-.667-.056 0-.117.039-.133.089zM29.839 4.739c-.033.033-.061.167-.061.294v.228l-.261.039c-.139.017-.267.028-.278.017a2.689 2.689 0 0 1-.067-.283c-.056-.306-.078-.339-.2-.289-.083.028-.089.111-.056.717.044.728.089.928.217.928.15 0 .206-.144.167-.467l-.039-.311h.561l.05.289c.039.244.067.3.172.311.067.011.133-.017.156-.061.028-.072-.022-.567-.122-1.217-.033-.217-.133-.3-.239-.194zM33.594 4.822c-.15.161-.206.389-.206.822 0 .489.089.7.339.8.206.089.383.017.556-.222.239-.328.156-.611-.172-.611-.239 0-.333.056-.333.194 0 .1.033.133.144.15.128.017.133.022.056.128s-.083.106-.183.011c-.106-.1-.122-.444-.05-.85.044-.222.117-.239.294-.067.106.1.144.111.178.05.072-.111.011-.272-.15-.394-.172-.139-.356-.144-.472-.011zM26.15 4.878c-.222.244-.3 1-.133 1.322.194.378.644.35.961-.061.222-.289.256-.778.078-1.028-.217-.306-.722-.433-.906-.233zm.561.361c.2.183.172.5-.078.75-.183.183-.2.189-.289.1-.072-.072-.094-.183-.089-.483.011-.55.139-.65.456-.367zM27.461 4.811c-.039.017-.072.078-.072.133 0 .106.106.167.272.167.089 0 .106.072.128.539.033.578.072.739.178.739.139 0 .189-.117.139-.322a3.072 3.072 0 0 1-.05-.578v-.367l.211-.05c.15-.033.206-.078.206-.156 0-.1-.044-.111-.472-.122a3.614 3.614 0 0 0-.539.017zM30.672 4.828c-.061.039-.067.161-.022.694.056.678.128.85.311.778.106-.039.111-.072.044-.817-.061-.628-.133-.778-.333-.656zM32.744 4.878c-.033.022-.078.2-.1.4-.056.533-.106.572-.283.217-.217-.428-.356-.606-.467-.606-.172 0-.217.117-.256.706-.033.506-.028.578.056.606.133.056.194-.039.239-.344l.039-.267.194.317c.289.478.55.5.711.061.111-.311.122-1.1.011-1.117a.185.185 0 0 0-.144.028zM34.139 6.644c-1.272.094-3.828.183-8.611.294-1.444.033-1.444.033-1.461.156-.033.233.161.256 1.933.217 4.2-.083 6.578-.15 7.111-.2.322-.028.778-.05 1.011-.056.378 0 .439-.017.489-.117.05-.089.044-.139-.033-.222-.05-.056-.122-.1-.156-.094s-.161.017-.283.022zM29.317 7.944c-.15.117-.15.122-.15.828 0 .878.022.911.55.861.361-.039.467-.122.339-.272-.033-.039-.167-.083-.294-.094-.217-.017-.233-.028-.25-.194-.017-.172-.017-.178.25-.194.206-.011.272-.039.283-.122.028-.144-.05-.2-.3-.222-.206-.022-.217-.028-.217-.206s.011-.189.172-.172c.183.017.322-.089.256-.194-.022-.039-.139-.083-.261-.1-.178-.033-.256-.011-.378.083zM34.617 8.089c-.161.133-.172.167-.167.483.006.761.111 1.078.317 1 .061-.028.072-.1.056-.306-.017-.144-.022-.267-.011-.267s.122.15.244.339c.128.183.261.322.294.311.133-.044.1-.222-.1-.522s-.2-.306-.111-.494a.551.551 0 0 0-.072-.594c-.117-.133-.25-.117-.45.05zM26.767 8.128c-.278.228-.261.372.089.783.172.2.311.383.311.411s-.133.072-.289.1c-.261.044-.294.067-.294.189 0 .128.022.139.278.156.2.011.328-.017.461-.1.15-.094.178-.139.178-.328 0-.183-.05-.278-.289-.567-.267-.322-.278-.35-.183-.417a.376.376 0 0 1 .178-.078c.1 0 .089-.206-.017-.244-.156-.061-.267-.033-.422.094zM28.006 8.094c-.128.089-.133.1-.1.75.017.406.056.694.1.744.05.061.156.078.406.067.322-.017.339-.022.339-.156 0-.122-.028-.139-.228-.156-.183-.011-.239-.044-.267-.139-.056-.222-.033-.256.172-.272.361-.028.311-.317-.05-.322-.128 0-.156-.022-.156-.139 0-.122.022-.139.189-.139.206 0 .344-.117.289-.25-.044-.117-.522-.111-.694.011zM35.789 8.128c-.106.111-.122.194-.122.55 0 .8.111.972.583.906.317-.05.439-.156.356-.311-.044-.094-.106-.111-.289-.094-.206.017-.233 0-.25-.111s0-.122.156-.111c.122.011.2-.017.244-.083.078-.128-.039-.217-.256-.189-.122.017-.15-.006-.172-.122-.039-.194-.006-.228.206-.228.206 0 .339-.117.289-.25-.022-.061-.111-.083-.328-.083-.239 0-.322.028-.417.128zM33.361 8.256c-.106.256-.106.744-.006.994.1.233.25.317.55.294.206-.017.233-.033.233-.156s-.028-.139-.222-.156c-.228-.022-.306-.078-.306-.244 0-.067.056-.1.211-.111.161-.011.206-.039.206-.128s-.044-.117-.206-.128c-.183-.017-.211-.039-.211-.156 0-.111.028-.133.156-.133.2 0 .311-.078.272-.189-.028-.067-.111-.089-.317-.089-.267 0-.278.006-.361.2zM31.789 8.233c-.044.044-.067.272-.067.633 0 .472.017.572.089.6.144.056.261-.078.222-.256-.028-.15-.022-.156.217-.156s.25.006.25.156c0 .233.133.389.261.311.083-.05.094-.122.083-.433-.039-.694-.083-.894-.206-.894-.094 0-.117.044-.128.256-.017.272-.078.328-.383.328-.111 0-.128-.028-.128-.244 0-.267-.1-.411-.211-.3zM22.333 8.383c-.261.028-.306.05-.322.161-.022.133.028.161.322.194l.194.017.017.561c.011.456.033.567.106.594.183.072.239-.067.239-.639v-.544l.228-.017c.272-.017.394-.15.278-.289-.078-.094-.428-.106-1.061-.039zM23.9 8.4c-.261.128-.3.811-.067 1.261.306.6.844.489.922-.189.044-.378-.061-.733-.283-.956-.189-.189-.35-.222-.572-.117zM14.222 8.706c-1.2.117-2.489.578-3.528 1.267-.522.344-.839.667-1.233 1.25-.744 1.106-1.067 2.156-1.078 3.511-.006.822.072 1.267.344 1.872.689 1.522 2.139 2.7 3.717 3.011l.333.067.306.578c.172.322.3.6.278.617-.017.017-.222.039-.461.044-.233.006-.444.017-.467.017-.067.006-.056.439.011.567.128.233.922.489 1.517.494.144 0 .261.022.261.044 0 .089 1.211 1.35 1.583 1.65 1.35 1.078 3.511 2.117 5.322 2.556 2.228.544 4.528.344 6.494-.567l.422-.194.167.183c.344.4.456.539.456.594 0 .144.167.189.428.122.356-.083.461-.189.461-.444 0-.233-.156-1.033-.228-1.172-.033-.067.072-.183.45-.5.278-.228.578-.517.678-.644.094-.133.217-.239.261-.239.05 0 .411.05.806.111.994.156 1.117.15 1.189-.044.122-.317.122-.394-.006-.739-.161-.422-.6-1.306-.806-1.628a41.112 41.112 0 0 0-1.272-1.722l-.256-.333.178-.344c.133-.256.367-.528.956-1.1.556-.544.872-.906 1.111-1.272.839-1.272 1.289-2.656.989-3.017-.078-.094-.406-.1-.483-.011-.028.039-.094.233-.144.433-.139.539-.411 1.078-.878 1.694-.494.661-.789.939-1.478 1.411-.556.383-.906.733-1.083 1.094l-.111.233-.394-.267c-.644-.428-1.156-.656-1.883-.833-.728-.183-2.517-.45-3.65-.556-1.628-.15-2.25-.228-2.917-.372-.644-.139-.7-.161-.667-.267.333-1.178.328-1.128.328-2.139.006-.872-.006-1.017-.122-1.389-.444-1.4-1.378-2.511-2.667-3.161-.739-.372-2.144-.578-3.233-.467zm2.122.427a4.598 4.598 0 0 1 2.867 1.972c.633.944.878 1.789.833 2.889-.028.639-.239 1.728-.333 1.728-.022 0-.044-.033-.044-.072 0-.117-.472-1.111-.689-1.456a7.122 7.122 0 0 0-.411-.578c-.189-.233-.2-.261-.2-.706-.006-.55-.089-.694-.35-.6-.117.039-.206.15-.35.45l-.194.4-.367.006c-.878 0-2.594.328-3.244.617-.383.167-.894.478-1.117.672l-.194.172-.178-.178c-.356-.339-.467-.222-.533.567-.111 1.306.106 2.828.572 3.917l.194.461-.178-.033c-1.544-.322-3.05-1.7-3.583-3.278-.139-.417-.144-.511-.15-1.417 0-.839.017-1.033.128-1.433.228-.828.65-1.706 1.122-2.333.672-.883 2.439-1.7 4.167-1.922.472-.061 1.65.022 2.233.156zm1.767 3.895v.417l.311.406c.178.228.489.767.728 1.256l.422.861-.294.272c-1.25 1.15-2.644 2.083-3.778 2.528-.639.256-2.211.678-2.506.678-.089 0-.422-.739-.594-1.306-.239-.778-.306-1.289-.311-2.456-.006-.933.022-1.189.122-1.039.022.033.094.128.161.211l.128.156.311-.283c.422-.383 1.261-.789 2.022-.972.689-.167 1.878-.322 2.356-.311.472.011.467.011.511-.128.072-.244.311-.706.361-.706.028 0 .05.189.05.417zm15.228 1.233a6.747 6.747 0 0 1-.372.906c-.433.894-.811 1.4-1.694 2.278-.583.572-.861.889-.967 1.106l-.15.3-.256-.244c-.144-.133-.267-.25-.283-.256-.011-.006.011-.094.056-.189.122-.3.706-.872 1.311-1.283.628-.428.967-.772 1.456-1.489.372-.539.611-1.006.756-1.444.056-.167.128-.339.161-.383.111-.144.106.294-.017.7zM20.367 16.3c.789.178 1.194.233 2.633.367 2.361.217 4.239.561 4.983.911.494.233.961.55 1.556 1.044.55.456.778.717 1.567 1.794.622.85.967 1.433 1.294 2.222.178.422.183.456.1.594-.044.089-.117.144-.167.133-.044-.017-.456-.067-.917-.117-1.133-.122-1.967-.25-2.122-.322-.089-.039-.15-.039-.189 0-.094.094.2.239.689.328.25.05.489.1.533.111.111.033-.133.278-.783.778-1.394 1.072-2.7 1.678-4.239 1.972-.878.167-2.4.183-3.356.033-1.922-.306-4.561-1.494-6.022-2.717-.9-.756-1.789-1.85-2.5-3.083l-.372-.656.233-.044c1.567-.306 2.144-.483 3.033-.933 1.017-.517 2.072-1.272 3.011-2.156.228-.211.422-.389.422-.394.006 0 .278.061.611.133zm-6.589 5.139c.122.183.222.344.222.356 0 .039-.7-.072-.956-.161-.25-.083-.433-.267-.433-.439 0-.067.083-.083.472-.083h.467l.228.328zm15.455 3.789c.15.567.133.678-.094.789l-.189.089-.322-.333c-.178-.189-.322-.367-.322-.394 0-.072.7-.539.778-.522.033.006.1.172.15.372z"/><path d="M15.394 9.472c.017.078.161.139.622.256.606.161 1.328.45 1.717.7.311.194.506.15.383-.089-.15-.272-1.661-.878-2.35-.933-.356-.033-.389-.022-.372.067zM17.822 19.472c-.122.067-.728.233-1.389.383-.139.033-.156.061-.156.244 0 .444.461.694 1.289.7.489.006.556-.006.667-.117.167-.172.1-.206-.239-.128-.356.089-.933.039-1.206-.094-.206-.106-.35-.394-.217-.428.039-.011.289-.072.561-.139.528-.122 1.011-.328.994-.422-.017-.089-.144-.089-.306 0zM14.01 15.995a.222.222 0 1 1-.444 0 .222.222 0 0 1 .444 0zM16.677 15.162a.221.221 0 1 1-.444 0 .221.221 0 1 1 .444 0z"/></symbol></defs></svg>